<svg id="Layer_1" data-name="Layer 1" xmlns="http://www.w3.org/2000/svg" viewBox="0 0 32 32">
  <path d="M31.872,26.297l-2.007-5.35c-.437-1.165-1.565-1.947-2.809-1.947h-5.057c.656,0,1.271-.322,1.644-.86,.374-.539,.459-1.228,.229-1.842l-2.007-5.351c-.437-1.165-1.565-1.947-2.809-1.947h-6.112c-1.244,0-2.373,.782-2.809,1.947l-2.007,5.351c-.23,.614-.145,1.303,.229,1.842,.374,.538,.988,.86,1.644,.86H4.944c-1.244,0-2.373,.782-2.809,1.946L.128,26.298c-.23,.614-.145,1.303,.229,1.842,.374,.539,.988,.86,1.644,.86H13.999c.656,0,1.27-.321,1.644-.86,.374-.539,.459-1.228,.229-1.843l-2.007-5.35c-.437-1.165-1.565-1.947-2.809-1.947h9.888c-1.244,0-2.373,.782-2.809,1.946l-2.007,5.352c-.23,.614-.145,1.303,.229,1.842,.374,.539,.988,.86,1.644,.86h11.998c.656,0,1.27-.321,1.644-.86,.374-.539,.459-1.228,.229-1.843Zm-19.88-4.647l2.007,5.351H2.001l2.007-5.352c.146-.388,.521-.648,.936-.648h6.112c.415,0,.791,.261,.936,.649Zm-1.991-4.649l2.007-5.352c.146-.388,.521-.648,.936-.648h6.112c.415,0,.791,.261,.936,.649l2.007,5.351H10.001Zm8,10l2.007-5.352c.146-.388,.521-.648,.936-.648h6.112c.415,0,.791,.261,.936,.649l2.007,5.351h-11.998Z" id="id_119" style="fill: rgb(164, 166, 173);"></path>
  <path d="M16,4c.552,0,1-.448,1-1V1c0-.552-.448-1-1-1s-1,.448-1,1V3c0,.552,.448,1,1,1Z" id="id_120" style="fill: rgb(162, 164, 171);"></path>
  <path d="M8.871,5.563c.195,.278,.505,.426,.82,.426,.198,0,.398-.059,.573-.181,.452-.317,.562-.94,.246-1.393l-1.147-1.638c-.316-.452-.939-.562-1.393-.246-.452,.317-.562,.94-.246,1.393l1.147,1.638Z" id="id_121" style="fill: rgb(166, 168, 173);"></path>
  <path d="M3.442,10.493l1.879,.684c.113,.042,.229,.061,.342,.061,.408,0,.792-.252,.939-.659,.189-.519-.079-1.093-.598-1.281l-1.879-.684c-.518-.19-1.093,.078-1.281,.598-.189,.519,.079,1.093,.598,1.281Z" id="id_122" style="fill: rgb(170, 172, 176);"></path>
  <path d="M22.309,5.989c.315,0,.625-.148,.82-.426l1.147-1.638c.316-.453,.207-1.076-.246-1.393-.453-.316-1.076-.206-1.393,.246l-1.147,1.638c-.316,.453-.207,1.076,.246,1.393,.175,.122,.375,.181,.573,.181Z" id="id_123" style="fill: rgb(173, 175, 179);"></path>
  <path d="M26.336,11.238c.114,0,.229-.02,.342-.061l1.879-.684c.519-.188,.787-.763,.598-1.281-.189-.52-.763-.788-1.281-.598l-1.879,.684c-.519,.188-.787,.763-.598,1.281,.147,.406,.531,.659,.939,.659Z" id="id_124" style="fill: rgb(177, 178, 181);"></path>
</svg>