<svg width="24" height="24" viewBox="0 0 24 24" fill="none" xmlns="http://www.w3.org/2000/svg">
<path d="M11.5008 21.0018H11.4938C10.5051 21.0032 9.52625 20.8053 8.61566 20.4201C7.70508 20.0349 6.88141 19.4703 6.1938 18.7598C4.79161 17.3189 4.00638 15.388 4.00488 13.3774C4.00339 11.3668 4.78575 9.43486 6.1858 7.99182L7.1688 6.99682C7.26268 6.90396 7.37402 6.83061 7.4964 6.78101C7.61877 6.73141 7.74976 6.70653 7.8818 6.70782C7.96919 6.70773 8.05623 6.71882 8.1408 6.74082C8.31141 6.78703 8.46672 6.87764 8.59092 7.00342C8.71511 7.12919 8.80375 7.28564 8.8478 7.45682C8.95115 7.99627 9.17657 8.50492 9.5068 8.94382C9.8918 8.53882 10.5068 6.97482 10.5068 4.50182C10.5068 4.35482 10.5068 4.21582 10.4988 4.07682C10.4885 3.93148 10.5102 3.78565 10.5621 3.64953C10.6141 3.51342 10.6953 3.39031 10.7998 3.28882C10.9904 3.10739 11.2437 3.0067 11.5068 3.00782C11.6391 3.00726 11.7702 3.03356 11.8921 3.08512C12.0139 3.13669 12.1241 3.21245 12.2158 3.30782L16.8068 7.99282C18.2118 9.43218 18.9992 11.3634 19.0011 13.3748C19.0029 15.3862 18.2192 17.3189 16.8168 18.7608C16.1261 19.4716 15.2996 20.0362 14.3864 20.4212C13.4732 20.8062 12.4919 21.0036 11.5008 21.0018V21.0018ZM7.4948 9.51682C6.51982 10.598 5.99099 12.0086 6.01493 13.4642C6.03887 14.9199 6.61379 16.3123 7.6238 17.3608C8.12618 17.88 8.72787 18.2928 9.39306 18.5748C10.0582 18.8567 10.7733 19.0019 11.4958 19.0018H11.5008C12.2251 19.0022 12.9421 18.8572 13.6093 18.5753C14.2764 18.2934 14.8802 17.8804 15.3848 17.3608C16.4221 16.2933 17.0016 14.863 16.9999 13.3745C16.9983 11.886 16.4155 10.457 15.3758 9.39182L12.3908 6.34182C12.0358 9.25982 10.9538 11.0018 9.4988 11.0018C9.05803 10.9725 8.63503 10.8169 8.28036 10.5535C7.92569 10.2902 7.65436 9.93027 7.4988 9.51682H7.4948Z" fill="#a1a3a8" id="id_101"></path>
</svg>